<svg width="24" height="24" viewBox="0 0 24 24" fill="none" xmlns="http://www.w3.org/2000/svg">
<path d="M11.9999 20.423C11.5692 20.423 11.2052 20.2744 10.9079 19.977C10.6106 19.6797 10.4619 19.3157 10.4619 18.885C10.4619 18.4544 10.6106 18.09 10.9079 17.792C11.2052 17.494 11.5692 17.3454 11.9999 17.346C12.4306 17.3467 12.7946 17.4954 13.0919 17.792C13.3892 18.0887 13.5379 18.4527 13.5379 18.884C13.5379 19.3154 13.3892 19.6797 13.0919 19.977C12.7946 20.2744 12.4306 20.423 11.9999 20.423ZM6.3499 15.35L5.3269 14.316C6.1949 13.448 7.19624 12.768 8.33091 12.276C9.46557 11.784 10.6896 11.5384 12.0029 11.539C13.3162 11.5397 14.5392 11.7864 15.6719 12.279C16.8046 12.7717 17.8049 13.4544 18.6729 14.327L17.6499 15.35C16.9166 14.6167 16.0666 14.0417 15.0999 13.625C14.1332 13.2084 13.0999 13 11.9999 13C10.8999 13 9.86657 13.2084 8.8999 13.625C7.93324 14.0417 7.08324 14.6167 6.3499 15.35ZM2.0999 11.1L1.0769 10.077C2.46957 8.67705 4.09457 7.57038 5.9519 6.75705C7.80924 5.94371 9.82524 5.53805 11.9999 5.54005C14.1746 5.54205 16.1906 5.94838 18.0479 6.75905C19.9052 7.56971 21.5302 8.67605 22.9229 10.078L21.8999 11.1C20.6166 9.81671 19.1292 8.81271 17.4379 8.08805C15.7466 7.36338 13.9339 7.00071 11.9999 7.00005C10.0659 6.99938 8.25357 7.36205 6.5629 8.08805C4.87224 8.81405 3.38457 9.81805 2.0999 11.1Z" fill="#F96749"/>
</svg>
